<svg id="Layer_1" data-name="Layer 1" xmlns="http://www.w3.org/2000/svg" viewBox="0 0 85 50"><defs><style>.cls-1{fill:#fff;}</style></defs><title>portfolio</title><path class="cls-1" d="M24.21,39H18.15L8.39,26.19a7.35,7.35,0,0,1-.66-1H7.65V39H3V11H7.65V24.16h.08a6.94,6.94,0,0,1,.66-1L17.8,11h5.57l-11,13.44Z"/><path class="cls-1" d="M50,39H45.29V26.86H32.1V39H27.45V11H32.1V22.77H45.29V11H50Z"/><path class="cls-1" d="M68.44,39.48a12.61,12.61,0,0,1-9.71-3.93,14.4,14.4,0,0,1-3.64-10.22q0-6.76,3.71-10.79t10.09-4a12.29,12.29,0,0,1,9.5,3.91A14.44,14.44,0,0,1,82,24.65q0,6.86-3.69,10.85A12.85,12.85,0,0,1,68.44,39.48Zm.21-24.88a7.78,7.78,0,0,0-6.26,2.88A11.34,11.34,0,0,0,60,25a11.43,11.43,0,0,0,2.35,7.52,7.54,7.54,0,0,0,6.14,2.86,7.93,7.93,0,0,0,6.35-2.72q2.32-2.72,2.32-7.6t-2.25-7.76A7.63,7.63,0,0,0,68.65,14.6Z"/></svg>